<svg xmlns="http://www.w3.org/2000/svg" version="1.0" width="512" height="512" viewBox="0 0 30 46"><path style="fill:#FF0303" d="M 21.0607,0 L 14.1613,0 C 7.38301,0 1.63391,5.1601 1.63391,15.1777 C 1.63391,21.1875 4.41811,25.6191 9.38002,27.8047 L 0.121216,44.5605 C -0.181488,45.1074 0.121216,45.5312 0.604614,45.5312 L 4.9015,45.5312 C 5.26482,45.5312 5.507,45.4101 5.62813,45.1074 L 14.0402,28.6543 L 17.0666,28.6543 L 17.0666,45.1074 C 17.0666,45.289 17.2482,45.5312 17.4894,45.5312 L 21.2423,45.5312 C 21.6056,45.5312 21.7267,45.3496 21.7267,45.0468 L 21.7267,0.607361 C 21.7267,0.18158 21.4845,0 21.0607,0 z M 17.0666,24.7695 L 14.5246,24.7695 C 10.5304,24.7695 6.65742,21.8553 6.65742,14.5703 C 6.65742,6.98035 10.2882,3.88464 13.9796,3.88464 L 17.0666,3.88464 L 17.0666,24.7695 z"></path></svg>